<svg xmlns="http://www.w3.org/2000/svg" xmlns:xlink="http://www.w3.org/1999/xlink" contentStyleType="text/css" data-diagram-type="DESCRIPTION" height="1248px" preserveAspectRatio="none" style="width:881px;height:1248px;background:#FFFFFF;" version="1.1" viewBox="0 0 881 1248" width="881px" zoomAndPan="magnify"><defs/><g><!--cluster Sistema da Sorveteria--><g class="cluster" data-entity="Sistema da Sorveteria" data-source-line="10" data-uid="ent0005" id="cluster_Sistema da Sorveteria"><rect fill="none" height="1235" rx="2.5" ry="2.5" style="stroke:#181818;stroke-width:1;" width="631.13" x="244.76" y="7"/><text fill="#000000" font-family="sans-serif" font-size="14" font-weight="bold" lengthAdjust="spacing" textLength="175.2188" x="472.7156" y="21.9951">Sistema da Sorveteria</text></g><!--entity UC_Auth--><g class="entity" data-entity="UC_Auth" data-source-line="12" data-uid="ent0006" id="entity_UC_Auth"><ellipse cx="759.6818" cy="980.0024" fill="#F1F1F1" rx="100.2118" ry="22.4424" style="stroke:#181818;stroke-width:0.5;"/><text fill="#000000" font-family="sans-serif" font-size="14" lengthAdjust="spacing" textLength="176.5244" x="671.4196" y="984.6508">Autenticar-se no Sistema</text></g><!--entity UC_ManageProfile--><g class="entity" data-entity="UC_ManageProfile" data-source-line="13" data-uid="ent0007" id="entity_UC_ManageProfile"><ellipse cx="397.6058" cy="242.0019" fill="#F1F1F1" rx="92.0858" ry="25.4219" style="stroke:#181818;stroke-width:0.5;"/><text fill="#000000" font-family="sans-serif" font-size="14" lengthAdjust="spacing" textLength="114.3584" x="340.4266" y="237.6049">Gerenciar Conta</text><text fill="#000000" font-family="sans-serif" font-size="14" lengthAdjust="spacing" textLength="129.5" x="332.8558" y="253.9018">(Endere&#231;o, Senha)</text></g><!--entity UC_ViewProducts--><g class="entity" data-entity="UC_ViewProducts" data-source-line="14" data-uid="ent0008" id="entity_UC_ViewProducts"><ellipse cx="397.6143" cy="321.0029" fill="#F1F1F1" rx="81.4143" ry="18.6829" style="stroke:#181818;stroke-width:0.5;"/><text fill="#000000" font-family="sans-serif" font-size="14" lengthAdjust="spacing" textLength="133.998" x="330.6152" y="325.6513">Visualizar Produtos</text></g><!--entity UC_CreateOrder--><g class="entity" data-entity="UC_CreateOrder" data-source-line="15" data-uid="ent0009" id="entity_UC_CreateOrder"><ellipse cx="397.6123" cy="393.0025" fill="#F1F1F1" rx="77.7623" ry="17.9525" style="stroke:#181818;stroke-width:0.5;"/><text fill="#000000" font-family="sans-serif" font-size="14" lengthAdjust="spacing" textLength="125.3711" x="334.9268" y="397.6509">Fazer Encomenda</text></g><!--entity UC_ViewHistory--><g class="entity" data-entity="UC_ViewHistory" data-source-line="16" data-uid="ent0010" id="entity_UC_ViewHistory"><ellipse cx="397.6136" cy="66.9953" fill="#F1F1F1" rx="94.1136" ry="25.1953" style="stroke:#181818;stroke-width:0.5;"/><text fill="#000000" font-family="sans-serif" font-size="14" lengthAdjust="spacing" textLength="133.7998" x="330.7136" y="64.7242">Visualizar Hist&#243;rico</text><text fill="#000000" font-family="sans-serif" font-size="14" lengthAdjust="spacing" textLength="111.8154" x="341.7058" y="81.0211">de Encomendas</text></g><!--entity UC_RepeatOrder--><g class="entity" data-entity="UC_RepeatOrder" data-source-line="17" data-uid="ent0011" id="entity_UC_RepeatOrder"><ellipse cx="397.6094" cy="162.9959" fill="#F1F1F1" rx="83.1294" ry="19.0259" style="stroke:#181818;stroke-width:0.5;"/><text fill="#000000" font-family="sans-serif" font-size="14" lengthAdjust="spacing" textLength="137.9971" x="328.6109" y="167.6443">Repetir Encomenda</text></g><!--entity UC_ManageTasks--><g class="entity" data-entity="UC_ManageTasks" data-source-line="20" data-uid="ent0012" id="entity_UC_ManageTasks"><ellipse cx="397.6053" cy="980.0011" fill="#F1F1F1" rx="136.8553" ry="29.7711" style="stroke:#181818;stroke-width:0.5;"/><text fill="#000000" font-family="sans-serif" font-size="14" lengthAdjust="spacing" textLength="125.3779" x="334.9164" y="969.1443">Gerenciar Tarefas</text><text fill="#000000" font-family="sans-serif" font-size="14" lengthAdjust="spacing" textLength="252.3418" x="271.4344" y="985.4412">(Visualizar, Marcar como Conclu&#237;da)</text></g><!--entity UC_ManageOrders--><g class="entity" data-entity="UC_ManageOrders" data-source-line="21" data-uid="ent0013" id="entity_UC_ManageOrders"><ellipse cx="397.605" cy="1070.0048" fill="#F1F1F1" rx="114.855" ry="25.3748" style="stroke:#181818;stroke-width:0.5;"/><text fill="#000000" font-family="sans-serif" font-size="14" lengthAdjust="spacing" textLength="162.9414" x="316.1343" y="1067.4706">Gerenciar Encomendas</text><text fill="#000000" font-family="sans-serif" font-size="14" lengthAdjust="spacing" textLength="142.3242" x="326.4429" y="1083.7674">(Aprovar, Consultar)</text></g><!--entity UC_RequestDayoff--><g class="entity" data-entity="UC_RequestDayoff" data-source-line="22" data-uid="ent0014" id="entity_UC_RequestDayoff"><ellipse cx="397.6063" cy="1145.9973" fill="#F1F1F1" rx="67.1363" ry="15.8273" style="stroke:#181818;stroke-width:0.5;"/><text fill="#000000" font-family="sans-serif" font-size="14" lengthAdjust="spacing" textLength="99.0664" x="348.0731" y="1150.6457">Solicitar Folga</text></g><!--entity UC_ClockIn--><g class="entity" data-entity="UC_ClockIn" data-source-line="23" data-uid="ent0015" id="entity_UC_ClockIn"><ellipse cx="397.6126" cy="1211.0005" fill="#F1F1F1" rx="60.9526" ry="14.5905" style="stroke:#181818;stroke-width:0.5;"/><text fill="#000000" font-family="sans-serif" font-size="14" lengthAdjust="spacing" textLength="82.4277" x="356.3988" y="1215.649">Bater Ponto</text></g><!--entity UC_ManageEmployees--><g class="entity" data-entity="UC_ManageEmployees" data-source-line="26" data-uid="ent0016" id="entity_UC_ManageEmployees"><ellipse cx="397.6123" cy="467.0025" fill="#F1F1F1" rx="93.6623" ry="21.1325" style="stroke:#181818;stroke-width:0.5;"/><text fill="#000000" font-family="sans-serif" font-size="14" lengthAdjust="spacing" textLength="161.9844" x="316.6202" y="471.6509">Gerenciar Funcion&#225;rios</text></g><!--entity UC_ManageCatalog--><g class="entity" data-entity="UC_ManageCatalog" data-source-line="27" data-uid="ent0017" id="entity_UC_ManageCatalog"><ellipse cx="397.6142" cy="548.0039" fill="#F1F1F1" rx="110.8942" ry="25.3039" style="stroke:#181818;stroke-width:0.5;"/><text fill="#000000" font-family="sans-serif" font-size="14" lengthAdjust="spacing" textLength="135.4063" x="329.9111" y="543.4345">Gerenciar Cat&#225;logo</text><text fill="#000000" font-family="sans-serif" font-size="14" lengthAdjust="spacing" textLength="157.6709" x="318.7788" y="559.7314">(Produtos e Carrinhos)</text></g><!--entity UC_AssignTasks--><g class="entity" data-entity="UC_AssignTasks" data-source-line="28" data-uid="ent0018" id="entity_UC_AssignTasks"><ellipse cx="397.6071" cy="634.0038" fill="#F1F1F1" rx="99.9271" ry="25.4638" style="stroke:#181818;stroke-width:0.5;"/><text fill="#000000" font-family="sans-serif" font-size="14" lengthAdjust="spacing" textLength="125.3779" x="334.9182" y="629.6678">Gerenciar Tarefas</text><text fill="#000000" font-family="sans-serif" font-size="14" lengthAdjust="spacing" textLength="140.6357" x="327.2893" y="645.9646">(Cadastrar, Atribuir)</text></g><!--entity UC_ManageDayoffs--><g class="entity" data-entity="UC_ManageDayoffs" data-source-line="29" data-uid="ent0019" id="entity_UC_ManageDayoffs"><ellipse cx="397.6106" cy="719.997" fill="#F1F1F1" rx="93.9506" ry="25.497" style="stroke:#181818;stroke-width:0.5;"/><text fill="#000000" font-family="sans-serif" font-size="14" lengthAdjust="spacing" textLength="118.3438" x="338.4387" y="715.7091">Gerenciar Folgas</text><text fill="#000000" font-family="sans-serif" font-size="14" lengthAdjust="spacing" textLength="131.7695" x="331.7258" y="732.0059">(Aprovar, Recusar)</text></g><!--entity UC_GenerateReports--><g class="entity" data-entity="UC_GenerateReports" data-source-line="30" data-uid="ent0020" id="entity_UC_GenerateReports"><ellipse cx="397.6072" cy="804.9961" fill="#F1F1F1" rx="110.0672" ry="24.6661" style="stroke:#181818;stroke-width:0.5;"/><text fill="#000000" font-family="sans-serif" font-size="14" lengthAdjust="spacing" textLength="114.3721" x="340.4212" y="799.4762">Gerar Relat&#243;rios</text><text fill="#000000" font-family="sans-serif" font-size="14" lengthAdjust="spacing" textLength="161.0684" x="317.073" y="815.773">(Vendas, Horas Extras)</text></g><!--entity UC_CalculatePayroll--><g class="entity" data-entity="UC_CalculatePayroll" data-source-line="31" data-uid="ent0021" id="entity_UC_CalculatePayroll"><ellipse cx="397.61" cy="889.998" fill="#F1F1F1" rx="113.54" ry="25.108" style="stroke:#181818;stroke-width:0.5;"/><text fill="#000000" font-family="sans-serif" font-size="14" lengthAdjust="spacing" textLength="205.5156" x="294.8522" y="894.6464">Calcular Folha de Pagamento</text></g><!--entity Cliente--><g class="entity" data-entity="Cliente" data-source-line="5" data-uid="ent0002" id="entity_Cliente"><ellipse cx="173.1818" cy="252.35" fill="#F1F1F1" rx="8" ry="8" style="stroke:#181818;stroke-width:0.5;"/><path d="M173.1818,260.35 L173.1818,287.35 M160.1818,268.35 L186.1818,268.35 M173.1818,287.35 L160.1818,302.35 M173.1818,287.35 L186.1818,302.35" fill="none" style="stroke:#181818;stroke-width:0.5;"/><text fill="#000000" font-family="sans-serif" font-size="14" lengthAdjust="spacing" textLength="49.1436" x="148.61" y="316.8451">Cliente</text></g><!--entity Funcion?rio--><g class="entity" data-entity="Funcion.rio" data-source-line="6" data-uid="ent0003" id="entity_Funcion.rio"><ellipse cx="46.8071" cy="1039.35" fill="#F1F1F1" rx="8" ry="8" style="stroke:#181818;stroke-width:0.5;"/><path d="M46.8071,1047.35 L46.8071,1074.35 M33.8071,1055.35 L59.8071,1055.35 M46.8071,1074.35 L33.8071,1089.35 M46.8071,1074.35 L59.8071,1089.35" fill="none" style="stroke:#181818;stroke-width:0.5;"/><text fill="#000000" font-family="sans-serif" font-size="14" lengthAdjust="spacing" textLength="81.6143" x="6" y="1103.8451">Funcion&#225;rio</text></g><!--entity Admin--><g class="entity" data-entity="Admin" data-source-line="7" data-uid="ent0004" id="entity_Admin"><ellipse cx="173.1821" cy="690.35" fill="#F1F1F1" rx="8" ry="8" style="stroke:#181818;stroke-width:0.5;"/><path d="M173.1821,698.35 L173.1821,725.35 M160.1821,706.35 L186.1821,706.35 M173.1821,725.35 L160.1821,740.35 M173.1821,725.35 L186.1821,740.35" fill="none" style="stroke:#181818;stroke-width:0.5;"/><text fill="#000000" font-family="sans-serif" font-size="14" lengthAdjust="spacing" textLength="44.8643" x="150.75" y="754.8451">Admin</text></g><!--reverse link Funcion?rio to Admin--><g class="link" data-entity-1="Funcion.rio" data-entity-2="Admin" data-source-line="37" data-uid="lnk22" id="link_Funcion.rio_Admin"><path d="M67.5133,1013.6948 C91.4333,946.5848 134.56,825.57 158.5,758.41" fill="none" id="Funcion&#225;rio-backto-Admin" style="stroke:#181818;stroke-width:1;"/><polygon fill="none" points="61.47,1030.65,73.1651,1015.7093,61.8616,1011.6804,61.47,1030.65" style="stroke:#181818;stroke-width:1;"/></g><!--link Cliente to UC_ViewProducts--><g class="link" data-entity-1="Cliente" data-entity-2="UC_ViewProducts" data-source-line="40" data-uid="lnk23" id="link_Cliente_UC_ViewProducts"><path d="M197.99,286.17 C229.71,291.73 281.1301,300.754 326.0801,308.634" fill="none" id="Cliente-to-UC_ViewProducts" style="stroke:#181818;stroke-width:1;"/><polygon fill="#181818" points="331.99,309.67,323.8159,304.176,327.0651,308.8066,322.4345,312.0559,331.99,309.67" style="stroke:#181818;stroke-width:1;"/></g><!--link Cliente to UC_CreateOrder--><g class="link" data-entity-1="Cliente" data-entity-2="UC_CreateOrder" data-source-line="41" data-uid="lnk24" id="link_Cliente_UC_CreateOrder"><path d="M198.25,320.2 C208.56,333.7 221.71,347.8 236.76,357 C262.85,372.95 289.3072,380.8306 318.0772,385.7906" fill="none" id="Cliente-to-UC_CreateOrder" style="stroke:#181818;stroke-width:1;"/><polygon fill="#181818" points="323.99,386.81,315.8004,381.3391,319.0627,385.9605,314.4413,389.2228,323.99,386.81" style="stroke:#181818;stroke-width:1;"/></g><!--link Cliente to UC_ViewHistory--><g class="link" data-entity-1="Cliente" data-entity-2="UC_ViewHistory" data-source-line="42" data-uid="lnk25" id="link_Cliente_UC_ViewHistory"><path d="M180.5,243.38 C188.13,208.4 204.23,157.64 236.76,126 C259.34,104.03 285.0546,91.8592 314.0946,83.1192" fill="none" id="Cliente-to-UC_ViewHistory" style="stroke:#181818;stroke-width:1;"/><polygon fill="#181818" points="319.84,81.39,310.0691,80.1535,315.0521,82.831,312.3746,87.814,319.84,81.39" style="stroke:#181818;stroke-width:1;"/></g><!--link Cliente to UC_ManageProfile--><g class="link" data-entity-1="Cliente" data-entity-2="UC_ManageProfile" data-source-line="43" data-uid="lnk26" id="link_Cliente_UC_ManageProfile"><path d="M197.99,277.72 C226.9,272.52 271.2048,264.5521 313.9048,256.8721" fill="none" id="Cliente-to-UC_ManageProfile" style="stroke:#181818;stroke-width:1;"/><polygon fill="#181818" points="319.81,255.81,310.2441,253.4663,314.889,256.6951,311.6602,261.34,319.81,255.81" style="stroke:#181818;stroke-width:1;"/></g><!--link Funcion?rio to UC_ManageTasks--><g class="link" data-entity-1="Funcion.rio" data-entity-2="UC_ManageTasks" data-source-line="46" data-uid="lnk27" id="link_Funcion.rio_UC_ManageTasks"><path d="M87.78,1053.77 C97.47,1050.33 107.85,1046.86 117.61,1044 C175.92,1026.94 236.2927,1012.8347 289.6027,1001.4347" fill="none" id="Funcion&#225;rio-to-UC_ManageTasks" style="stroke:#181818;stroke-width:1;"/><polygon fill="#181818" points="295.47,1000.18,285.8325,998.1505,290.5805,1001.2256,287.5054,1005.9736,295.47,1000.18" style="stroke:#181818;stroke-width:1;"/></g><!--link Funcion?rio to UC_ManageOrders--><g class="link" data-entity-1="Funcion.rio" data-entity-2="UC_ManageOrders" data-source-line="47" data-uid="lnk28" id="link_Funcion.rio_UC_ManageOrders"><path d="M87.82,1069.11 C134.97,1069.25 209.38,1069.463 276.32,1069.653" fill="none" id="Funcion&#225;rio-to-UC_ManageOrders" style="stroke:#181818;stroke-width:1;"/><polygon fill="#181818" points="282.32,1069.67,273.3314,1065.6445,277.32,1069.6558,273.3087,1073.6444,282.32,1069.67" style="stroke:#181818;stroke-width:1;"/></g><!--link Funcion?rio to UC_RequestDayoff--><g class="link" data-entity-1="Funcion.rio" data-entity-2="UC_RequestDayoff" data-source-line="48" data-uid="lnk29" id="link_Funcion.rio_UC_RequestDayoff"><path d="M87.92,1078.65 C126.12,1087.77 185.27,1101.69 236.76,1113 C273.02,1120.96 308.1494,1128.2289 339.5494,1134.5889" fill="none" id="Funcion&#225;rio-to-UC_RequestDayoff" style="stroke:#181818;stroke-width:1;"/><polygon fill="#181818" points="345.43,1135.78,337.4032,1130.073,340.5295,1134.7874,335.8151,1137.9137,345.43,1135.78" style="stroke:#181818;stroke-width:1;"/></g><!--link Funcion?rio to UC_ClockIn--><g class="link" data-entity-1="Funcion.rio" data-entity-2="UC_ClockIn" data-source-line="49" data-uid="lnk30" id="link_Funcion.rio_UC_ClockIn"><path d="M87.86,1097.6 C124.82,1122.68 182.1,1158.28 236.76,1179 C270.63,1191.84 304.6682,1198.9377 336.1582,1203.7277" fill="none" id="Funcion&#225;rio-to-UC_ClockIn" style="stroke:#181818;stroke-width:1;"/><polygon fill="#181818" points="342.09,1204.63,333.7939,1199.3221,337.1469,1203.8781,332.5908,1207.2311,342.09,1204.63" style="stroke:#181818;stroke-width:1;"/></g><!--link Admin to UC_ManageEmployees--><g class="link" data-entity-1="Admin" data-entity-2="UC_ManageEmployees" data-source-line="52" data-uid="lnk31" id="link_Admin_UC_ManageEmployees"><path d="M174.29,681.47 C176.59,633.25 188.03,551.36 236.76,505 C255.46,487.21 275.0561,478.5109 300.1561,473.0709" fill="none" id="Admin-to-UC_ManageEmployees" style="stroke:#181818;stroke-width:1;"/><polygon fill="#181818" points="306.02,471.8,296.377,469.7971,301.1335,472.8591,298.0715,477.6156,306.02,471.8" style="stroke:#181818;stroke-width:1;"/></g><!--link Admin to UC_ManageCatalog--><g class="link" data-entity-1="Admin" data-entity-2="UC_ManageCatalog" data-source-line="53" data-uid="lnk32" id="link_Admin_UC_ManageCatalog"><path d="M183.5,681.55 C192.45,652.6 208.85,614.08 236.76,591 C254.59,576.26 271.2416,568.1811 293.6016,561.7811" fill="none" id="Admin-to-UC_ManageCatalog" style="stroke:#181818;stroke-width:1;"/><polygon fill="#181818" points="299.37,560.13,289.6168,558.761,294.563,561.5059,291.8182,566.4522,299.37,560.13" style="stroke:#181818;stroke-width:1;"/></g><!--link Admin to UC_AssignTasks--><g class="link" data-entity-1="Admin" data-entity-2="UC_AssignTasks" data-source-line="54" data-uid="lnk33" id="link_Admin_UC_AssignTasks"><path d="M195.95,702.31 C207.51,693.66 222.28,683.68 236.76,677 C262.07,665.32 285.3333,657.7818 311.6933,651.1118" fill="none" id="Admin-to-UC_AssignTasks" style="stroke:#181818;stroke-width:1;"/><polygon fill="#181818" points="317.51,649.64,307.8038,647.9699,312.6628,650.8665,309.7662,655.7255,317.51,649.64" style="stroke:#181818;stroke-width:1;"/></g><!--link Admin to UC_ManageDayoffs--><g class="link" data-entity-1="Admin" data-entity-2="UC_ManageDayoffs" data-source-line="55" data-uid="lnk34" id="link_Admin_UC_ManageDayoffs"><path d="M195.92,720 C220.95,720 257.74,720 297.39,720" fill="none" id="Admin-to-UC_ManageDayoffs" style="stroke:#181818;stroke-width:1;"/><polygon fill="#181818" points="303.39,720,294.39,716,298.39,720,294.39,724,303.39,720" style="stroke:#181818;stroke-width:1;"/></g><!--link Admin to UC_GenerateReports--><g class="link" data-entity-1="Admin" data-entity-2="UC_GenerateReports" data-source-line="56" data-uid="lnk35" id="link_Admin_UC_GenerateReports"><path d="M195.94,737.72 C207.49,746.39 222.26,756.36 236.76,763 C260.63,773.93 282.0445,780.9436 307.1745,787.3236" fill="none" id="Admin-to-UC_GenerateReports" style="stroke:#181818;stroke-width:1;"/><polygon fill="#181818" points="312.99,788.8,305.251,782.7083,308.1437,787.5696,303.2824,790.4623,312.99,788.8" style="stroke:#181818;stroke-width:1;"/></g><!--link Admin to UC_CalculatePayroll--><g class="link" data-entity-1="Admin" data-entity-2="UC_CalculatePayroll" data-source-line="57" data-uid="lnk36" id="link_Admin_UC_CalculatePayroll"><path d="M183.84,758.46 C192.92,786.89 209.32,824.45 236.76,847 C254.41,861.51 270.747,869.4803 292.837,875.8803" fill="none" id="Admin-to-UC_CalculatePayroll" style="stroke:#181818;stroke-width:1;"/><polygon fill="#181818" points="298.6,877.55,291.0686,871.2035,293.7975,876.1586,288.8424,878.8875,298.6,877.55" style="stroke:#181818;stroke-width:1;"/></g><!--link UC_ManageProfile to UC_Auth--><g class="link" data-entity-1="UC_ManageProfile" data-entity-2="UC_Auth" data-source-line="60" data-uid="lnk37" id="link_UC_ManageProfile_UC_Auth"><path d="M476.55,255.34 C497.05,261.72 518.01,271.13 534.47,285 C750.4,467.01 760.3751,852.4704 759.3051,951.0804" fill="none" id="UC_ManageProfile-to-UC_Auth" style="stroke:#181818;stroke-width:1;stroke-dasharray:7,7;"/><polygon fill="#181818" points="759.24,957.08,763.3374,948.1239,759.2943,952.0803,755.3379,948.0371,759.24,957.08" style="stroke:#181818;stroke-width:1;"/><text fill="#000000" font-family="sans-serif" font-size="13" lengthAdjust="spacing" textLength="63.0068" x="565.47" y="322.0669">&#171;include&#187;</text></g><!--link UC_CreateOrder to UC_Auth--><g class="link" data-entity-1="UC_CreateOrder" data-entity-2="UC_Auth" data-source-line="61" data-uid="lnk38" id="link_UC_CreateOrder_UC_Auth"><path d="M471.21,398.97 C493.61,403.93 516.96,412.69 534.47,428 C556.27,447.07 709.4577,849.7779 747.9477,951.5579" fill="none" id="UC_CreateOrder-to-UC_Auth" style="stroke:#181818;stroke-width:1;stroke-dasharray:7,7;"/><polygon fill="#181818" points="750.07,957.17,750.6279,947.337,748.3014,952.4932,743.1451,950.1667,750.07,957.17" style="stroke:#181818;stroke-width:1;"/><text fill="#000000" font-family="sans-serif" font-size="13" lengthAdjust="spacing" textLength="63.0068" x="565.47" y="490.0669">&#171;include&#187;</text></g><!--link UC_ViewHistory to UC_Auth--><g class="link" data-entity-1="UC_ViewHistory" data-entity-2="UC_Auth" data-source-line="62" data-uid="lnk39" id="link_UC_ViewHistory_UC_Auth"><path d="M463.87,85.33 C488.13,94.56 514.56,107.76 534.47,126 C599.73,185.78 599.73,217.65 629.47,301 C717.88,548.8 749.13,864.2109 756.42,951.3809" fill="none" id="UC_ViewHistory-to-UC_Auth" style="stroke:#181818;stroke-width:1;stroke-dasharray:7,7;"/><polygon fill="#181818" points="756.92,957.36,760.156,948.058,756.5033,952.3774,752.1839,948.7247,756.92,957.36" style="stroke:#181818;stroke-width:1;"/><text fill="#000000" font-family="sans-serif" font-size="13" lengthAdjust="spacing" textLength="63.0068" x="565.47" y="156.0669">&#171;include&#187;</text></g><!--link UC_ManageOrders to UC_Auth--><g class="link" data-entity-1="UC_ManageOrders" data-entity-2="UC_Auth" data-source-line="63" data-uid="lnk40" id="link_UC_ManageOrders_UC_Auth"><path d="M474.97,1050.91 C539.18,1034.87 624.239,1013.6048 685.699,998.2448" fill="none" id="UC_ManageOrders-to-UC_Auth" style="stroke:#181818;stroke-width:1;stroke-dasharray:7,7;"/><polygon fill="#181818" points="691.52,996.79,681.8187,995.0915,686.6692,998.0023,683.7584,1002.8528,691.52,996.79" style="stroke:#181818;stroke-width:1;"/><text fill="#000000" font-family="sans-serif" font-size="13" lengthAdjust="spacing" textLength="63.0068" x="565.47" y="1011.0669">&#171;include&#187;</text></g><!--link UC_ManageTasks to UC_Auth--><g class="link" data-entity-1="UC_ManageTasks" data-entity-2="UC_Auth" data-source-line="64" data-uid="lnk41" id="link_UC_ManageTasks_UC_Auth"><path d="M534.74,980 C576.06,980 614.67,980 653.12,980" fill="none" id="UC_ManageTasks-to-UC_Auth" style="stroke:#181818;stroke-width:1;stroke-dasharray:7,7;"/><polygon fill="#181818" points="659.12,980,650.12,976,654.12,980,650.12,984,659.12,980" style="stroke:#181818;stroke-width:1;"/><text fill="#000000" font-family="sans-serif" font-size="13" lengthAdjust="spacing" textLength="63.0068" x="565.47" y="976.0669">&#171;include&#187;</text></g><!--link UC_RequestDayoff to UC_Auth--><g class="link" data-entity-1="UC_RequestDayoff" data-entity-2="UC_Auth" data-source-line="65" data-uid="lnk42" id="link_UC_RequestDayoff_UC_Auth"><path d="M453,1136.65 C478.32,1131.33 508.51,1123.58 534.47,1113 C608.45,1082.86 682.0806,1034.5093 723.7406,1005.2393" fill="none" id="UC_RequestDayoff-to-UC_Auth" style="stroke:#181818;stroke-width:1;stroke-dasharray:7,7;"/><polygon fill="#181818" points="728.65,1001.79,718.9864,1003.691,724.5588,1004.6644,723.5854,1010.2369,728.65,1001.79" style="stroke:#181818;stroke-width:1;"/><text fill="#000000" font-family="sans-serif" font-size="13" lengthAdjust="spacing" textLength="63.0068" x="565.47" y="1065.0669">&#171;include&#187;</text></g><!--link UC_ClockIn to UC_Auth--><g class="link" data-entity-1="UC_ClockIn" data-entity-2="UC_Auth" data-source-line="66" data-uid="lnk43" id="link_UC_ClockIn_UC_Auth"><path d="M449.05,1202.78 C475.11,1197.63 507.11,1189.87 534.47,1179 C579.81,1160.99 591.6,1154.76 629.47,1124 C675.36,1086.73 715.5877,1037.4156 738.5277,1007.2556" fill="none" id="UC_ClockIn-to-UC_Auth" style="stroke:#181818;stroke-width:1;stroke-dasharray:7,7;"/><polygon fill="#181818" points="742.16,1002.48,733.5278,1007.2218,739.133,1006.4596,739.8952,1012.0649,742.16,1002.48" style="stroke:#181818;stroke-width:1;"/><text fill="#000000" font-family="sans-serif" font-size="13" lengthAdjust="spacing" textLength="63.0068" x="565.47" y="1120.0669">&#171;include&#187;</text></g><!--link UC_RepeatOrder to UC_ViewHistory--><g class="link" data-entity-1="UC_RepeatOrder" data-entity-2="UC_ViewHistory" data-source-line="68" data-uid="lnk44" id="link_UC_RepeatOrder_UC_ViewHistory"><path d="M397.61,143.57 C397.61,128.89 397.61,114.6 397.61,98.59" fill="none" id="UC_RepeatOrder-to-UC_ViewHistory" style="stroke:#181818;stroke-width:1;stroke-dasharray:7,7;"/><polygon fill="#181818" points="397.61,92.59,393.61,101.59,397.61,97.59,401.61,101.59,397.61,92.59" style="stroke:#181818;stroke-width:1;"/><text fill="#000000" font-family="sans-serif" font-size="13" lengthAdjust="spacing" textLength="61.1851" x="355.61" y="122.6469">&#171;extend&#187;</text></g><!--SRC=[ZLLBRjj03Dth54GsiO4a1mW20wxZV1P1W_nM0GfMekL1naDtPfGsQNkOj8kYYwoAda0NAoLRbaQoum86Z1cIZvptI6eNZccY3052eYpbl_AV38dy5AOMPmXpj0WpqbEsm3P5evwnz8eqJJnu1glIgI-ZOw_OHD5kXSaEqBCb5s4i_p3IYeodvUaaCx7uvozMyV9gcCnK2J2o2a6WoUS_J9ffXayPoN4kO0A11RHMC-N95TKwvJpDC2fAG9DgWfthnHKa2DTi7ycJGEx0rmXW5_RtOOHEC1A2MrS-U5cRcCGZSnIZ4vHXvkLMnMZtvMWObh0xW0vwjwCFuZ3jDoDEoPAy2-MrB8NUczxO95GmotjmJMQA_LNm1HfCwTBoH6aAKEwKor0BrHR4d6IUtIhgJj7dyZBsBWWwmMUoC3OnpyWaTOqZI-ZflPKoDYKvasVbVwoA-LwghJ72h8KNswS0v8hcvDMwj8K5_JBj9jgRJT3YlcRo1YrDq0cNTSbxS85MT059omNNiSxorwJ3xWsw1xT1eVgP0ZsSMtuiS0NBPTgZRKELJmcnhbchM8aldB1Ecs-NVdN-69zuCWaYteaK8ghq1jS2QOuVpircbigvs4XFaqFNgdaycsj-8jf4mGXz_g8v5TrxLQS1oRMroapPjJaGVnJt_ZQXHYYiUblmEVHMVSnKWywXSoerRobJiXceSaLnvhgQB1Zkm0Z45MaiUvhBnYbbteCpjX8__YAbDTvsIaPYF4dBicrDrGXrdEb5JLCiHBd45ALjcW8kV3nTufDbhVlHzsABYPBLTdLbFR8u_yh64Y75kaYggtqAlJCvclmNzW-NWkU_8Pk1LtCkqWRxCfYRes-IQRKx6udglHRL-ssmPekqhS7AM1UwMWLjOskdTUe92kzLhJqbAujQ9aPKYLexOT2TvZSygY5Twz8QoxK-zJ06fPERKvo_JkHRu5OZ6LM3ELW_SklCgmaAZS5Ch8jRTNfexBHkQEvsPaiHWlDYTRgo0u-EL758Q33eonQGCI5JMQWu96A8kZB3mS6W_Xp28JI0edO_RNLkzjTMvq3r__HUiBpLEUoMxMzSDiwRZb7xomW7tQ4gOog-_m40]--></g></svg>